PathFileType	4	(X/Y/Z)	C:\Users\dbl\Desktop\LZH\BX\Trimmed_Trimmed_Trimmed_Trimmed_bx_n_5_1801.trc
DataRate	CameraRate	NumFrames	NumMarkers	Units	OrigDataRate	OrigDataStartFrame	OrigNumFrames
50.00	50.00	       8	43	mm	50.00	218	       290
Frame#	Time	Top.Head			R.Acromium			L.Acromium			Sternum			R.ASIS			L.ASIS			V.Sacral			R.Thigh.Upper			R.Thigh.Front			R.Thigh.Rear			R.Knee.Lat			R.Knee.Med			R.Shank.Upper			R.Shank.Front			R.Shank.Rear			R.Ankle.Lat			R.Midfoot.Lat			R.Toe.Lat			R.Toe.Tip			R.Toe.Med			R.Ankle.Med			R.Midfoot.Sup			R.Heel			L.Thigh.Upper			L.Thigh.Front			L.Thigh.Rear			L.Knee.Lat			L.Knee.Med			L.Shank.Upper			L.Shank.Front			L.Shank.Rear			L.Ankle.Lat			L.Midfoot.Lat			L.Toe.Lat			L.Toe.Tip			L.Toe.Med			L.Ankle.Med			L.Midfoot.Sup			L.Heel			origin1 front left			origin2 front right			origin 3 back right			origin 4 back leftt			
		X1	Y1	Z1	X2	Y2	Z2	X3	Y3	Z3	X4	Y4	Z4	X5	Y5	Z5	X6	Y6	Z6	X7	Y7	Z7	X8	Y8	Z8	X9	Y9	Z9	X10	Y10	Z10	X11	Y11	Z11	X12	Y12	Z12	X13	Y13	Z13	X14	Y14	Z14	X15	Y15	Z15	X16	Y16	Z16	X17	Y17	Z17	X18	Y18	Z18	X19	Y19	Z19	X20	Y20	Z20	X21	Y21	Z21	X22	Y22	Z22	X23	Y23	Z23	X24	Y24	Z24	X25	Y25	Z25	X26	Y26	Z26	X27	Y27	Z27	X28	Y28	Z28	X29	Y29	Z29	X30	Y30	Z30	X31	Y31	Z31	X32	Y32	Z32	X33	Y33	Z33	X34	Y34	Z34	X35	Y35	Z35	X36	Y36	Z36	X37	Y37	Z37	X38	Y38	Z38	X39	Y39	Z39	X40	Y40	Z40	X41	Y41	Z41	X42	Y42	Z42	X43	Y43	Z43	

218	4.340	-519.78870	232.18948	1732.66272	-513.69159	62.05428	1445.90259	-493.73340	416.51520	1443.18347	-501.25555	237.92323	1245.73962	-634.28247	113.19822	987.61725	-610.35632	340.76117	996.43903	-828.29974	239.14716	1013.65698	-661.45392	57.61536	806.37903	-561.09436	110.60598	817.10583	-602.94781	62.64826	703.67889	-576.00354	87.30051	585.31580	-537.44421	194.47458	557.27014	-601.28711	92.91228	523.84155	-521.68823	135.94737	506.15701	-620.77954	89.89026	477.72919	-677.79578	150.24368	214.42867	-609.31403	88.75756	164.56841	-562.44586	67.28951	161.94487	-482.07632	110.78657	156.37770	-529.48749	161.80441	165.15007	-626.53687	224.57654	218.03889	-591.78314	200.28473	170.04890	-716.47205	219.75510	175.46364	-649.43646	430.80301	831.76752	-553.12354	378.28613	825.47754	-613.48767	421.29126	721.22253	-559.52625	403.14639	595.35040	-539.89020	291.43161	557.71301	-572.15717	404.84528	549.27057	-511.20331	352.60565	526.19263	-637.01038	403.86859	496.25909	-670.90900	396.51410	214.75790	-582.98779	450.64972	164.23343	-544.20642	460.40982	157.06165	-478.61472	409.34906	164.96532	-523.63135	370.55258	176.75667	-637.69446	306.88379	203.36821	-592.41528	330.04532	167.35178	-730.91101	325.04169	163.50934	-443.85001	448.61789	147.33440	-450.30133	74.84087	143.80634	-806.19818	82.68910	141.44951	-799.55566	456.55002	144.98871	
219	4.360	-527.78400	231.49132	1742.01660	-518.22394	61.41383	1454.75122	-498.30566	416.39139	1452.80469	-500.58899	237.79404	1254.90381	-629.34003	113.03704	992.96466	-605.74182	340.57654	1002.03760	-823.47260	238.59711	1018.51221	-658.80310	58.24524	809.63977	-558.44342	111.57641	818.59875	-602.98328	64.00615	705.68805	-578.64844	88.99351	586.93549	-540.62146	196.11401	558.03412	-604.16071	94.45132	524.94958	-524.57770	137.72882	507.40012	-623.27106	91.23561	478.68909	-678.02057	150.35851	214.23956	-609.33728	88.73199	164.55223	-562.38281	67.36163	161.88371	-482.08356	110.79594	156.38329	-529.50836	161.83177	165.16733	-626.66711	224.63702	218.20659	-591.82550	200.30016	170.15787	-716.59497	219.65311	175.37265	-647.24664	430.26349	835.18353	-551.29547	377.73587	827.07599	-614.03363	420.19638	723.92517	-563.21649	402.12610	596.82971	-544.63763	288.92566	559.33514	-575.97717	404.08859	550.42908	-515.31470	351.81512	527.50800	-640.51691	403.29990	496.89926	-671.05133	396.63263	214.86790	-583.01318	450.69818	164.23405	-544.15411	460.40704	157.05339	-478.63486	409.25735	164.99104	-523.71021	370.51434	176.69373	-637.96716	307.04288	203.48044	-592.44952	330.13037	167.50484	-730.95532	325.16803	163.53957	-443.83856	448.57574	147.28793	-450.28986	74.86390	143.76242	-806.27063	82.64067	141.58752	-799.57660	456.51651	144.95569	
220	4.380	-535.67676	230.75125	1750.78381	-522.84210	60.75226	1463.19934	-503.12671	416.22415	1461.86731	-500.14429	237.67114	1263.67468	-624.25360	112.77243	998.00555	-601.04205	340.37476	1007.31604	-818.69226	238.15291	1023.05463	-656.07959	58.98076	812.58508	-555.76001	112.46532	819.86938	-602.99823	65.41295	707.59174	-581.23053	90.68208	588.43835	-543.77954	197.87044	558.85394	-606.94055	95.97015	526.02789	-527.33289	139.42799	508.60715	-625.69690	92.52203	479.54349	-678.22888	150.35031	214.17964	-609.36084	88.70785	164.55518	-562.31934	67.43786	161.83049	-482.08374	110.81767	156.38063	-529.52948	161.88377	165.18260	-626.88324	224.67403	218.33925	-591.91998	200.33437	170.24414	-716.69684	219.55367	175.29567	-644.97388	429.84781	838.38293	-549.51038	377.16779	828.31970	-614.48834	419.19867	726.46814	-566.91663	401.17456	598.16962	-548.87598	287.42459	560.54517	-579.68561	403.40109	551.50238	-519.27991	351.08701	528.62567	-643.94415	402.77460	497.48520	-671.22540	396.76517	214.98688	-583.04553	450.77274	164.24197	-544.09375	460.36719	157.01627	-478.63641	409.19797	165.06337	-523.77533	370.49789	176.65157	-638.14734	307.13303	203.61571	-592.48792	330.16873	167.63309	-730.96375	325.25275	163.53267	-443.80823	448.55536	147.27448	-450.27252	74.87929	143.75340	-806.32581	82.54535	141.71736	-799.59515	456.50116	144.97305	
221	4.400	-543.45978	229.93524	1758.99976	-527.56372	60.04533	1471.27808	-508.18011	415.97519	1470.38647	-499.91669	237.51836	1272.05298	-619.08490	112.44300	1002.73853	-596.25964	340.21802	1012.27753	-813.87543	237.85223	1027.19312	-653.34052	59.74554	815.26270	-553.07227	113.16259	820.99158	-602.96863	66.91402	709.35565	-583.73315	92.36743	589.78638	-546.87152	199.59355	559.64075	-609.64642	97.45794	527.08667	-529.97443	141.00652	509.78873	-628.06219	93.75510	480.33255	-678.47461	150.20346	214.28734	-609.36896	88.71928	164.55299	-562.30005	67.47654	161.79645	-482.07013	110.85981	156.38857	-529.55310	161.93633	165.18216	-627.13684	224.71786	218.41771	-592.04156	200.36920	170.27538	-716.76819	219.45255	175.23901	-642.60413	429.50308	841.38019	-547.77338	376.50244	829.16620	-614.79449	418.28906	728.86304	-570.57397	400.23920	599.38062	-552.78339	286.55704	561.48499	-583.29230	402.66769	552.50800	-523.11969	350.29453	529.61243	-647.23114	402.28253	498.03137	-671.46259	396.94843	215.14771	-583.05719	450.81992	164.25995	-544.00427	460.27606	156.97154	-478.63474	409.17517	165.13347	-523.80627	370.47955	176.62370	-638.26459	307.13989	203.77058	-592.52814	330.17093	167.71068	-730.95990	325.31369	163.49956	-443.76428	448.56021	147.30667	-450.27194	74.87257	143.77759	-806.35999	82.46164	141.77119	-799.61469	456.49979	144.99890	
222	4.420	-551.08813	229.05707	1766.71631	-532.45325	59.35887	1478.96423	-513.42139	415.62640	1478.38477	-499.85629	237.29576	1280.04333	-613.99506	112.15810	1007.14490	-591.48395	340.18109	1016.91199	-809.03363	237.66849	1030.88770	-650.64142	60.45403	817.74408	-550.39331	113.67999	822.03833	-602.89398	68.49462	710.96906	-586.15808	94.03518	590.99725	-549.86121	201.24686	560.39728	-612.30261	98.91586	528.13562	-532.55414	142.50438	510.92139	-630.36969	94.97421	481.09268	-678.78882	150.01775	214.48232	-609.35571	88.75616	164.54385	-562.32159	67.48872	161.78889	-482.03845	110.91511	156.41699	-529.56293	161.97369	165.15994	-627.41101	224.77797	218.43829	-592.15704	200.38037	170.24205	-716.80640	219.36459	175.20760	-640.14233	429.15912	844.16620	-546.01013	375.75320	829.69629	-614.96344	417.39618	731.08380	-574.10663	399.28250	600.48553	-556.53528	285.86801	562.32526	-586.84161	401.84369	553.42413	-526.87280	349.39474	530.56409	-650.37427	401.78958	498.52811	-671.75018	397.15244	215.32957	-583.02478	450.78079	164.29095	-543.88409	460.14349	156.95291	-478.64178	409.17389	165.14922	-523.80035	370.43027	176.59993	-638.38605	307.05161	203.98888	-592.55096	330.14914	167.74275	-730.96051	325.37408	163.47127	-443.71692	448.56567	147.35448	-450.28888	74.85388	143.79761	-806.39490	82.42708	141.76717	-799.62732	456.51263	145.02287	
223	4.440	-558.53577	228.19746	1773.95203	-537.55688	58.78893	1486.16321	-518.79291	415.19601	1485.86060	-499.93420	236.97893	1287.63879	-609.15741	111.92493	1011.18738	-586.85870	340.27502	1021.23322	-804.21234	237.54366	1034.18408	-648.04016	61.09938	820.08014	-547.79407	114.09277	823.01416	-602.82843	70.06453	712.47717	-588.54138	95.65025	592.11615	-552.75903	202.83714	561.15161	-614.92883	100.36798	529.14392	-535.11768	143.97710	511.99033	-632.62628	96.21967	481.81873	-679.12610	149.89272	214.67776	-609.32117	88.79341	164.54617	-562.32867	67.52064	161.80721	-481.99503	110.97031	156.44518	-529.53534	162.00224	165.11118	-627.71619	224.85426	218.43214	-592.24335	200.35963	170.17020	-716.82153	219.32487	175.19469	-637.60986	428.73016	846.72528	-544.13428	374.99347	830.10406	-615.06592	416.43301	733.11871	-577.49170	398.28702	601.52258	-560.27417	285.03827	563.17590	-590.38171	400.95197	554.23395	-530.58514	348.41705	531.55505	-653.43915	401.26175	498.94794	-672.03979	397.30380	215.48471	-582.94623	450.63248	164.33824	-543.76697	460.00623	156.99471	-478.64816	409.16837	165.12398	-523.77631	370.34509	176.57484	-638.56317	306.89706	204.27757	-592.54822	330.10394	167.76128	-730.97894	325.44708	163.46545	-443.68451	448.55191	147.37785	-450.30917	74.84497	143.77773	-806.42560	82.42387	141.75880	-799.62341	456.53989	145.05356	
224	4.460	-565.84387	227.45859	1780.69873	-542.87280	58.36574	1492.79663	-524.23193	414.74896	1492.79187	-500.18909	236.58241	1294.82898	-604.65027	111.65733	1014.87585	-582.44196	340.40598	1025.25183	-799.43726	237.43916	1037.16821	-645.57550	61.72738	822.27277	-545.39691	114.45037	823.86493	-602.85352	71.54391	713.91241	-590.98724	97.18448	593.17157	-555.62610	204.38759	561.90338	-617.55847	101.84336	530.04980	-537.69458	145.43402	513.01501	-634.88342	97.49280	482.50232	-679.40527	149.84337	214.84111	-609.27081	88.82764	164.57359	-562.28027	67.58760	161.84143	-481.95099	111.01714	156.44183	-529.46716	162.04707	165.02780	-628.02295	224.93700	218.45068	-592.29822	200.32474	170.10641	-716.82861	219.35132	175.18312	-635.05280	428.16373	849.05865	-542.17023	374.25946	830.52692	-615.20032	415.39337	735.00256	-580.83398	397.28433	602.54877	-564.10382	284.01364	564.05634	-593.94617	400.02957	554.97626	-534.29053	347.40427	532.58459	-656.51031	400.69046	499.27246	-672.29535	397.36014	215.58882	-582.83533	450.42282	164.41669	-543.70020	459.90372	157.08783	-478.64267	409.14951	165.11053	-523.76416	370.24713	176.54364	-638.79791	306.76489	204.55914	-592.53589	330.02194	167.80849	-731.03125	325.53430	163.47334	-443.68521	448.52148	147.36055	-450.32416	74.85523	143.72818	-806.42999	82.41451	141.76305	-799.60419	456.56711	145.08269	
225	4.480	-573.09436	226.90605	1786.95691	-548.36292	58.06503	1498.87524	-529.69214	414.36862	1499.17297	-500.69864	236.16287	1301.58997	-600.39594	111.32896	1018.27448	-578.13104	340.43665	1028.95776	-794.70801	237.32011	1039.90808	-643.24438	62.37550	824.27997	-543.29547	114.80828	824.50818	-603.03625	72.92222	715.26990	-593.65125	98.67433	594.16241	-558.54559	205.94888	562.62366	-620.25317	103.34563	530.82709	-540.32776	146.86018	514.00879	-637.21710	98.76436	483.16733	-679.60107	149.83699	214.94443	-609.21613	88.86462	164.62184	-562.19806	67.65418	161.87753	-481.91168	111.05309	156.40364	-529.38080	162.12555	164.91689	-628.27594	225.00038	218.51952	-592.32623	200.31955	170.08885	-716.83582	219.41345	175.14589	-632.54681	427.46573	851.16882	-540.24274	373.52991	830.95770	-615.44305	414.35657	736.78766	-584.30457	396.34326	603.60010	-568.04688	282.93970	564.92413	-597.55334	399.10309	555.70605	-537.99377	346.37598	533.59882	-659.64038	400.07938	499.51978	-672.49048	397.33762	215.65518	-582.71564	450.25003	164.54147	-543.70416	459.85468	157.17064	-478.63260	409.12482	165.14745	-523.77063	370.15976	176.49765	-639.05383	306.73352	204.76050	-592.53644	329.90427	167.89996	-731.11420	325.62131	163.47577	-443.71902	448.49316	147.30902	-450.32986	74.87255	143.70313	-806.40948	82.40042	141.75017	-799.58325	456.57327	145.09363	
